<?xml version="1.0" encoding="UTF-8" ?>
<!DOCTYPE svg PUBLIC "-//W3C//DTD SVG 1.1//EN" "http://www.w3.org/Graphics/SVG/1.1/DTD/svg11.dtd">
<svg width="82pt" height="55pt" viewBox="0 0 82 55" version="1.1" xmlns="http://www.w3.org/2000/svg">
<path fill="#808890" opacity="1.00" d=" M 34.38 6.55 C 48.10 3.08 62.38 10.54 70.53 21.43 C 72.39 23.84 73.97 27.21 72.07 30.07 C 66.84 38.91 57.66 45.32 47.69 47.67 C 33.51 50.67 18.83 42.49 11.25 30.69 C 9.47 28.23 9.89 24.99 11.65 22.65 C 16.98 14.84 25.18 8.86 34.38 6.55 M 13.09 27.00 C 19.49 38.14 32.50 46.70 45.70 44.70 C 55.79 42.69 64.82 35.90 69.91 27.01 C 63.46 15.86 50.36 7.10 37.09 9.38 C 27.09 11.42 18.08 18.14 13.09 27.00 Z" />
<path fill="#808890" opacity="1.00" d=" M 32.00 24.11 C 33.44 18.98 38.94 16.70 43.88 16.94 C 41.93 18.17 39.58 19.52 39.17 22.03 C 38.07 26.00 41.97 30.19 46.01 29.39 C 48.62 29.16 50.12 26.87 51.67 25.07 C 51.90 30.35 48.67 36.07 43.02 36.69 C 36.16 38.13 29.62 30.73 32.00 24.11 Z" />
</svg>
