<?xml version="1.0" encoding="UTF-8" ?>
<!DOCTYPE svg PUBLIC "-//W3C//DTD SVG 1.1//EN" "http://www.w3.org/Graphics/SVG/1.1/DTD/svg11.dtd">
<svg width="78pt" height="42pt" viewBox="0 0 78 42" version="1.1" xmlns="http://www.w3.org/2000/svg">
<path fill="#808890" opacity="1.00" d=" M 5.72 7.54 C 6.55 7.53 8.21 7.52 9.03 7.52 C 14.48 17.47 25.74 23.81 37.03 23.89 C 48.64 24.16 60.34 17.74 65.97 7.52 C 66.79 7.52 68.42 7.53 69.24 7.53 C 67.98 11.54 65.21 14.76 62.20 17.58 C 64.47 20.01 66.74 22.45 68.98 24.92 C 68.38 25.49 67.19 26.64 66.59 27.21 C 64.29 24.69 61.96 22.20 59.66 19.68 C 57.16 21.28 54.63 22.82 52.01 24.19 C 53.24 27.31 54.48 30.43 55.72 33.54 C 54.94 33.84 53.38 34.43 52.60 34.73 C 51.40 31.59 50.15 28.47 48.88 25.35 C 45.74 26.29 42.51 26.90 39.24 27.19 C 39.26 30.46 39.24 33.73 39.25 37.00 C 38.38 37.00 36.62 37.00 35.75 37.00 C 35.76 33.73 35.74 30.46 35.76 27.19 C 32.48 26.90 29.24 26.29 26.09 25.34 C 24.80 28.45 23.57 31.58 22.43 34.74 C 21.63 34.43 20.04 33.81 19.24 33.50 C 20.48 30.40 21.72 27.30 22.99 24.21 C 20.38 22.83 17.85 21.31 15.41 19.65 C 13.04 22.13 10.71 24.64 8.45 27.23 C 7.64 26.46 6.83 25.69 6.02 24.92 C 8.25 22.45 10.53 20.01 12.80 17.58 C 9.78 14.75 6.98 11.57 5.72 7.54 Z" />
</svg>
